<?xml version="1.0" encoding="UTF-8"?>
<!DOCTYPE svg PUBLIC "-//W3C//DTD SVG 1.1 Tiny//EN" "http://www.w3.org/Graphics/SVG/1.1/DTD/svg11-tiny.dtd">
<svg xmlns="http://www.w3.org/2000/svg" xmlns:xlink="http://www.w3.org/1999/xlink" baseProfile="tiny" height="111.801" viewBox="0 0 111.559 111.801" width="111.559">
<g>
<g>
<g>
<path d="M2.149,57.096c0,30.338,24.606,54.705,54.705,54.705c30.101,0,54.704-24.607,54.704-54.705       c0-30.338-24.604-54.707-54.704-54.707C26.756,2.151,2.149,26.758,2.149,57.096z" fill-opacity="0.2" stroke-opacity="0.2"/>
</g>
<path d="M0,54.706c0,30.339,24.604,54.706,54.705,54.706c30.102,0,54.704-24.607,54.704-54.706      C109.409,24.607,85.043,0,54.705,0C24.604,0,0,24.607,0,54.706z" fill="#660000"/>
<path d="M54.705,0.956c-29.622,0-53.75,24.127-53.75,53.75s24.128,53.987,53.988,53.987      c29.622,0,53.988-24.127,53.988-53.987C108.932,24.845,84.565,0.956,54.705,0.956z" fill="#660000"/>
<radialGradient cx="-102.6885" cy="59.7246" fx="-102.6885" fy="59.7246" gradientTransform="matrix(0.1875 0 0 -0.1875 39.0248 34.2958)" gradientUnits="userSpaceOnUse" id="XMLID_5_" r="619.9309">
<stop offset="0" style="stop-color:#FF9999"/>
<stop offset="0.0056" style="stop-color:#FF9999"/>
<stop offset="0.5843" style="stop-color:#FF0000"/>
<stop offset="1" style="stop-color:#990000"/>
</radialGradient>
<circle cx="54.705" cy="54.706" fill="url(#XMLID_5_)" r="51.123"/>
<g>
<path d="M5.017,56.619c0-28.19,22.934-51.123,51.121-51.123c16.483,0,31.057,7.643,40.372,19.827       c-9.315-13.139-24.605-21.5-41.806-21.5c-28.188,0-51.121,22.935-51.121,51.121c0,11.945,4.062,22.935,10.75,31.535       C8.36,77.879,5.017,67.605,5.017,56.619z" fill="#FFFFFF" fill-opacity="0.5" stroke-opacity="0.5"/>
</g>
<linearGradient gradientTransform="matrix(0.1875 0 0 -0.1875 39.0248 34.2958)" gradientUnits="userSpaceOnUse" id="XMLID_6_" x1="81.0781" x2="81.0781" y1="160.085" y2="-52.5363">
<stop offset="0" style="stop-color:#FFFFFF"/>
<stop offset="0.0056" style="stop-color:#FFFFFF"/>
<stop offset="1" style="stop-color:#FF5656"/>
</linearGradient>
<path d="M13.139,30.579c9.794,4.54,23.649,7.167,38.938,7.167c17.678,0,33.442-3.583,43.238-9.317      C87.194,14.333,72.143,5.018,54.705,5.018C36.549,5.018,20.784,15.29,13.139,30.579z" fill="url(#XMLID_6_)"/>
<g>
<g>
<g fill-opacity="0.2" stroke-opacity="0.2">
<path d="M77.398,23.175L77.398,23.175L77.398,23.175 M73.815,24.607L57.333,41.091c-0.479,0.477-0.956,0.714-1.436,0.714l0,0         c-0.477,0-1.193-0.237-1.434-0.714L38.222,24.845c-1.911-1.91-5.256-1.91-7.167,0l-8.839,8.6         c-0.955,0.956-1.432,2.15-1.432,3.583c0,1.435,0.477,2.629,1.432,3.583l16.245,16.247c0.956,0.957,0.956,2.15,0,3.104         L22.216,76.206c-0.955,0.956-1.432,2.149-1.432,3.583s0.477,2.627,1.432,3.583l8.6,8.601c0.956,0.955,2.15,1.435,3.583,1.435         c1.434,0,2.628-0.479,3.583-1.435L54.227,75.73c0.955-0.957,2.149-0.957,3.105,0l16.242,16.242         c0.955,0.955,2.149,1.435,3.583,1.435c1.435,0,2.629-0.479,3.583-1.435l8.602-8.601c0.954-0.956,1.435-2.149,1.435-3.583         s-0.479-2.627-1.435-3.583L73.099,59.962c-0.478-0.479-0.718-0.954-0.718-1.435c0-0.477,0.24-1.194,0.718-1.434L89.343,40.85         c0.954-0.954,1.435-2.148,1.435-3.583s-0.479-2.629-1.435-3.583l-8.602-8.602c-0.954-0.954-2.148-1.433-3.583-1.433         C75.964,23.175,74.77,23.65,73.815,24.607z"/>
</g>
</g>
<g>
<g fill-opacity="0.2" stroke-opacity="0.2">
<path d="M76.444,22.935L76.444,22.935L76.444,22.935 M72.861,24.369L56.617,40.61c-0.479,0.48-0.957,0.719-1.435,0.719l0,0         c-0.479,0-1.193-0.238-1.434-0.719L37.506,24.369c-1.912-1.913-5.256-1.913-7.167,0l-8.6,8.599         c-0.955,0.957-1.435,2.151-1.435,3.584c0,1.433,0.479,2.627,1.435,3.583l16.243,16.244c0.955,0.954,0.955,2.148,0,3.104         L21.739,75.729c-0.955,0.955-1.435,2.149-1.435,3.584c0,1.433,0.479,2.627,1.435,3.584l8.6,8.599         c0.956,0.957,2.15,1.433,3.583,1.433s2.627-0.476,3.583-1.433L53.75,75.249c0.955-0.954,2.148-0.954,3.104,0l16.244,16.246         c0.957,0.957,2.151,1.433,3.584,1.433s2.627-0.476,3.583-1.433l8.6-8.599c0.957-0.957,1.433-2.151,1.433-3.584         c0-1.435-0.476-2.629-1.433-3.584L72.622,59.482c-0.479-0.476-0.718-0.955-0.718-1.432c0-0.479,0.238-1.195,0.718-1.433         l16.243-16.246c0.957-0.957,1.433-2.151,1.433-3.584c0-1.432-0.476-2.626-1.433-3.583l-8.6-8.599         c-0.956-0.957-2.15-1.433-3.583-1.433C75.25,22.935,73.815,23.413,72.861,24.369z"/>
</g>
</g>
<g>
<g fill-opacity="0.2" stroke-opacity="0.2">
<path d="M76.444,21.98L76.444,21.98L76.444,21.98 M72.861,23.413L56.617,39.656c-0.479,0.479-0.957,0.717-1.435,0.717l0,0         c-0.479,0-1.193-0.238-1.434-0.717L37.506,23.413c-1.912-1.913-5.256-1.913-7.167,0l-8.6,8.599         c-0.955,0.956-1.435,2.151-1.435,3.583c0,1.433,0.479,2.627,1.435,3.584l16.243,16.246c0.955,0.954,0.955,2.147,0,3.103         L21.739,74.773c-0.955,0.955-1.435,2.149-1.435,3.582c0,1.434,0.479,2.627,1.435,3.584l8.6,8.6         c0.956,0.956,2.15,1.434,3.583,1.434s2.627-0.478,3.583-1.434L53.75,74.295c0.955-0.954,2.148-0.954,3.104,0l16.244,16.244         c0.957,0.956,2.151,1.434,3.584,1.434s2.627-0.478,3.583-1.434l8.6-8.6c0.957-0.957,1.433-2.15,1.433-3.584         c0-1.433-0.476-2.627-1.433-3.582L72.622,58.527c-0.479-0.477-0.718-0.955-0.718-1.434c0-0.476,0.238-1.194,0.718-1.433         l16.243-16.246c0.957-0.954,1.433-2.148,1.433-3.583c0-1.433-0.476-2.627-1.433-3.583l-8.6-8.6         c-0.956-0.956-2.15-1.432-3.583-1.432C75.25,22.219,73.815,22.456,72.861,23.413z"/>
</g>
</g>
<linearGradient gradientTransform="matrix(0.1875 0 0 -0.1875 39.0248 34.2958)" gradientUnits="userSpaceOnUse" id="XMLID_7_" x1="-118.0527" x2="280.0462" y1="-117.7793" y2="-117.7793">
<stop offset="0" style="stop-color:#AA0000"/>
<stop offset="0.0056" style="stop-color:#AA0000"/>
<stop offset="1" style="stop-color:#663333"/>
</linearGradient>
<path d="M75.726,21.262L75.726,21.262L75.726,21.262 M72.143,22.694L55.898,38.94       c-0.477,0.476-0.955,0.716-1.434,0.716l0,0c-0.478,0-1.194-0.24-1.432-0.716L36.788,22.694c-1.911-1.908-5.254-1.908-7.167,0       l-8.601,8.602c-1.432,0.954-1.911,2.148-1.911,3.583s0.479,2.629,1.435,3.583l16.244,16.244c0.956,0.956,0.956,2.149,0,3.106       L20.544,74.055c-0.955,1.194-1.435,2.389-1.435,3.824s0.479,2.629,1.435,3.583l8.6,8.603c0.956,0.953,2.15,1.432,3.583,1.432       s2.627-0.479,3.583-1.432l16.244-16.248c0.955-0.955,2.149-0.955,3.104,0l16.244,16.248c0.957,0.953,2.151,1.432,3.584,1.432       s2.626-0.479,3.583-1.432l8.6-8.603c0.957-0.954,1.433-2.147,1.433-3.583s-0.476-2.63-1.433-3.584L71.667,57.813       c-0.48-0.479-0.719-0.957-0.719-1.435c0-0.479,0.237-1.194,0.719-1.435l16.241-16.242c0.956-0.956,1.435-2.15,1.435-3.583       c0-1.435-0.479-2.629-1.435-3.583l-8.6-8.602c-0.957-0.954-2.15-1.435-3.584-1.435C74.294,21.262,73.099,21.74,72.143,22.694z" fill="url(#XMLID_7_)"/>
<linearGradient gradientTransform="matrix(1 0 0 1 53.8711 21.5005)" gradientUnits="userSpaceOnUse" id="XMLID_8_" x1="-27.415" x2="28.2466" y1="62.7686" y2="7.1069">
<stop offset="0" style="stop-color:#C4C4C4"/>
<stop offset="0.0056" style="stop-color:#C4C4C4"/>
<stop offset="0.5" style="stop-color:#FFFFFF"/>
<stop offset="1" style="stop-color:#C4C4C4"/>
</linearGradient>
<path d="M66.889,56.379c3.344-3.344,19.351-19.352,19.351-19.352c0.476-0.476,0.955-1.194,0.955-2.148       c0-0.716-0.239-1.435-0.955-2.148l-8.601-8.602c-1.194-1.194-2.869-1.194-4.063,0c0,0-16.005,16.006-19.349,19.352       c-3.346-3.346-19.351-19.352-19.351-19.352c-1.194-1.194-2.867-1.194-4.063,0l-8.6,8.602c-0.716,0.714-0.955,1.433-0.955,2.148       c0,0.715,0.239,1.435,0.955,2.148c0,0,16.006,16.008,19.35,19.352c-3.344,3.344-19.35,19.352-19.35,19.352       c-0.478,0.477-0.955,1.193-0.955,2.148c0,0.717,0.239,1.436,0.955,2.148l8.6,8.601c0.479,0.479,1.195,0.954,2.15,0.954       c0.717,0,1.434-0.236,2.151-0.954c0,0,16.005-16.006,19.349-19.351c3.345,3.345,19.351,19.351,19.351,19.351       c1.194,1.194,2.867,1.194,4.063,0l8.599-8.601c0.479-0.478,0.957-1.434,0.957-2.148c0-0.717-0.238-1.436-0.957-2.148       C86.476,75.729,70.473,59.723,66.889,56.379z" fill="url(#XMLID_8_)"/>
</g>
</g>
</g>
</svg>
