<?xml version="1.0" encoding="UTF-8"?>
<!DOCTYPE svg PUBLIC "-//W3C//DTD SVG 1.1 Tiny//EN" "http://www.w3.org/Graphics/SVG/1.1/DTD/svg11-tiny.dtd">
<svg xmlns="http://www.w3.org/2000/svg" xmlns:xlink="http://www.w3.org/1999/xlink" baseProfile="tiny" height="107.6" viewBox="0 0 106.1 107.6" width="106.1">
<g>
<g>
<g>
<path d="M1.5,55.3c0,28.8,23.5,52.3,52.3,52.3s52.3-23.5,52.3-52.3S82.8,3,53.8,3C25,3,1.5,26.5,1.5,55.3z" fill-opacity="0.2" stroke-opacity="0.2"/>
</g>
<g>
<path d="M0.8,53.8c0,28.8,23.5,52.3,52.3,52.3s52.3-23.5,52.3-52.3S81.899,1.5,53.1,1.5S0.8,25,0.8,53.8z" fill-opacity="0.2" stroke-opacity="0.2"/>
</g>
<linearGradient gradientTransform="matrix(0.1875 0 0 -0.1875 39.2812 39.3316)" gradientUnits="userSpaceOnUse" id="XMLID_9_" x1="69.4336" x2="69.4335" y1="209.7686" y2="-348.0962">
<stop offset="0" style="stop-color:#0053BD"/>
<stop offset="1" style="stop-color:#00008D"/>
</linearGradient>
<path d="M0,52.3c0,28.8,23.5,52.3,52.3,52.3s52.3-23.5,52.3-52.3S81.1,0,52.3,0S0,23.5,0,52.3z" fill="url(#XMLID_9_)"/>
<radialGradient cx="-67.9063" cy="43.9038" fx="-67.9063" fy="43.9038" gradientTransform="matrix(0.1875 0 0 -0.1875 39.2812 39.3316)" gradientUnits="userSpaceOnUse" id="XMLID_10_" r="429.0237">
<stop offset="0" style="stop-color:#006DFF"/>
<stop offset="0.764" style="stop-color:#004EED"/>
<stop offset="1" style="stop-color:#0032CD"/>
</radialGradient>
<circle cx="52.3" cy="51.6" fill="url(#XMLID_10_)" r="48.5"/>
<g>
<path d="M9.2,56.3c0-28.5,20.3-51.6,46-53.1c-0.801,0-1.801,0-2.7,0C25.5,3,3.8,24.8,3.8,51.6       c0,12.3,4.7,23.7,12.3,32.3C11.7,75.8,9.2,66.5,9.2,56.3z" fill="#FFFFFF" fill-opacity="0.36" stroke-opacity="0.36"/>
</g>
<g>
<linearGradient gradientTransform="matrix(0.1875 0 0 -0.1875 -330.0089 -203.9682)" gradientUnits="userSpaceOnUse" id="XMLID_11_" x1="2039.7813" x2="2039.7813" y1="117.2939" y2="-113.2831">
<stop offset="0" style="stop-color:#FFFFFF"/>
<stop offset="1" style="stop-color:#006DFF"/>
</linearGradient>
<path d="M53.1,49.1c16.5,0,31.601-2.3,43.601-6.3C92.8,20.2,74.5,3,52.3,3       c-22,0-40.1,17-44.1,39.3C20.3,46.6,36,49.1,53.1,49.1z" fill="url(#XMLID_11_)" fill-opacity="0.5" stroke-opacity="0.5"/>
</g>
<g>
<path d="M52.1,19.3l0.8,0.5c1,0.5,9.5,5.8,18,12.3c12.2,9.5,17.7,16.2,17.7,21.5l0,0c0,5.3-5.7,12-17.7,21.3       c-8.5,6.5-17,11.801-18,12.301l-0.8,0.5c-0.8,0.5-1.8,0.5-2.7,0c-0.8-0.5-1.3-1.301-1.3-2.301c0,0,0-13.3,0-15.199       c-2,0-21.7,0-21.7,0c-1.5,0-2.699-1.2-2.699-2.7V39.3c0-1.5,1.199-2.7,2.699-2.7c0,0,19.7,0,21.7,0c0-2,0-15.2,0-15.2       c0-1,0.5-1.8,1.3-2.3C50.3,18.7,51.3,18.8,52.1,19.3z" fill-opacity="0.2" stroke-opacity="0.2"/>
</g>
<g>
<path d="M51.8,18.7l0.8,0.5c1,0.5,9.5,5.8,18,12.3c12,9.3,17.7,16.2,17.7,21.3l0,0c0,5.3-5.7,12-17.7,21.3       c-8.5,6.5-17,11.8-18,12.3l-0.8,0.5c-0.8,0.5-1.8,0.5-2.7,0c-0.8-0.5-1.3-1.3-1.3-2.3c0,0,0-13.3,0-15.2c-2,0-21.7,0-21.7,0       c-1.5,0-2.7-1.199-2.7-2.699V38.6c0-1.5,1.2-2.7,2.7-2.7c0,0,19.7,0,21.7,0c0-2,0-15.199,0-15.199c0-1,0.5-1.801,1.3-2.301       C50,18,51.1,18.2,51.8,18.7z" fill-opacity="0.2" stroke-opacity="0.2"/>
</g>
<linearGradient gradientTransform="matrix(-0.1875 0 0 -0.1875 63.5953 39.3316)" gradientUnits="userSpaceOnUse" id="XMLID_12_" x1="-31.1602" x2="170.9518" y1="32.8398" y2="-169.2721">
<stop offset="0" style="stop-color:#0066CC"/>
<stop offset="1" style="stop-color:#003399"/>
</linearGradient>
<path d="M51.5,18l0.8,0.5c1,0.5,9.5,5.8,18,12.3C82.3,40.1,88,47,88,52.1l0,0c0,5.3-5.7,12-17.7,21.3      c-8.5,6.5-17,11.801-18,12.301l-0.8,0.8c-0.8,0.5-1.8,0.5-2.7,0s-1.3-1.3-1.3-2.3c0,0,0-13.301,0-15.2c-2,0-21.7,0-21.7,0      c-1.5,0-2.7-1.2-2.7-2.7V38.1c0-1.5,1.2-2.7,2.7-2.7c0,0,19.7,0,21.7,0c0-2,0-15.199,0-15.199c0-1,0.5-1.801,1.3-2.301      C49.6,17.5,50.8,17.5,51.5,18z" fill="url(#XMLID_12_)"/>
<linearGradient gradientTransform="matrix(-0.1875 0 0 -0.1875 63.5953 39.3316)" gradientUnits="userSpaceOnUse" id="XMLID_13_" x1="-31.6846" x2="170.4046" y1="32.2944" y2="-169.7947">
<stop offset="0" style="stop-color:#0066CC"/>
<stop offset="1" style="stop-color:#003399"/>
</linearGradient>
<path d="M51,19l0.8,0.5l0,0c1,0.5,9.5,5.8,17.8,12.3c11.7,9,17.2,15.7,17.2,20.5s-5.7,11.5-17.2,20.5      c-8.5,6.5-16.8,11.8-17.8,12.3L51,85.6c-0.5,0.3-1,0.3-1.5,0s-0.8-0.8-0.8-1.3c0,0,0-13.8,0-16.3c-2.7,0-22.801,0-22.801,0      c-0.8,0-1.5-0.7-1.5-1.5V38.1c0-0.8,0.7-1.5,1.5-1.5c0,0,20.2,0,22.801,0c0-2.5,0-16.3,0-16.3c0-0.5,0.3-1,0.8-1.3      S50.5,18.7,51,19z" fill="url(#XMLID_13_)"/>
<linearGradient gradientTransform="matrix(-0.1875 0 0 -0.1875 63.5953 39.3316)" gradientUnits="userSpaceOnUse" id="XMLID_14_" x1="-32.0874" x2="170.1366" y1="32.1963" y2="-170.0276">
<stop offset="0" style="stop-color:#FFFFFF"/>
<stop offset="1" style="stop-color:#F0F0F0"/>
</linearGradient>
<path d="M51.1,20.8c1.3,0.8,34.3,21.3,34.3,31.5s-33,30.8-34.3,31.6l-0.8,0.5c0,0,0-16.699,0-17.8      c-1.2,0-24.3,0-24.3,0V38.1c0,0,23.2,0,24.3,0c0-1.2,0-17.8,0-17.8L51.1,20.8z" fill="url(#XMLID_14_)"/>
<linearGradient gradientTransform="matrix(-0.1875 0 0 -0.1875 63.5953 39.3316)" gradientUnits="userSpaceOnUse" id="XMLID_15_" x1="-32.7407" x2="169.3676" y1="31.2773" y2="-170.831">
<stop offset="0" style="stop-color:#FFFFFF"/>
<stop offset="1" style="stop-color:#DFDFDF"/>
</linearGradient>
<path d="M83.399,52.3c0,6.3-18.5,20.3-31.3,28.5c0-4.5,0-16.3,0-16.3s-21,0-24.3,0c0-3.2,0-21.5,0-24.7      c3.3,0,24.3,0,24.3,0s0-11.7,0-16.3C65.1,32,83.399,46,83.399,52.3z" fill="url(#XMLID_15_)"/>
<linearGradient gradientTransform="matrix(-0.1875 0 0 -0.1875 63.5953 39.3316)" gradientUnits="userSpaceOnUse" id="XMLID_16_" x1="0.4434" x2="154.6774" y1="-9.6563" y2="-163.8907">
<stop offset="0" style="stop-color:#428AFF"/>
<stop offset="1" style="stop-color:#003399"/>
</linearGradient>
<path d="M64.3,37.6L64.3,37.6C76.6,47.1,78.8,51.5,79,52.3c-0.3,0.8-2.3,5.2-14.7,14.7      c-2.3,1.8-5,3.7-7.8,5.7c0-3.5,0-12.5,0-12.5s-21.8,0-24.3,0c0-2.2,0-13.7,0-15.801c2.5,0,24.3,0,24.3,0s0-9,0-12.5      C59.3,34,62,35.8,64.3,37.6z" fill="url(#XMLID_16_)"/>
</g>
</g>
</svg>
