<?xml version="1.0" encoding="UTF-8"?>
<!DOCTYPE svg PUBLIC "-//W3C//DTD SVG 1.1 Tiny//EN" "http://www.w3.org/Graphics/SVG/1.1/DTD/svg11-tiny.dtd">
<svg xmlns="http://www.w3.org/2000/svg" baseProfile="tiny" height="135.65401" version="1.0" viewBox="0 0 153.75 135.654" width="153.75">
<g>
<g>
<path d="M 70.548,3.796 L 0.95,124.52 C -0.316,126.795 -0.316,129.583 0.95,131.859 C 2.215,134.137 4.746,135.655 7.277,135.655 L 146.474,135.655 C 149.004,135.655 151.536,134.137 152.801,131.859 C 154.067,129.583 154.067,126.796 152.801,124.52 L 83.455,3.796 C 82.189,1.519 79.658,0 77.129,0 C 74.599,0 71.813,1.519 70.548,3.796 z" style="fill:#ffffff"/>
<linearGradient gradientTransform="translate(25.7246,66.9731)" gradientUnits="userSpaceOnUse" id="XMLID_6_" x1="-19.6499" x2="122.1288" y1="0.85399997" y2="0.85399997">
<stop offset="0" style="stop-color:#ffd00b;stop-opacity:1"/>
<stop offset="0.5" style="stop-color:#ff8b00;stop-opacity:1"/>
<stop offset="1" style="stop-color:#ffd00b;stop-opacity:1"/>
</linearGradient>
<path d="M 77.129,6.327 C 76.621,6.327 76.369,6.579 76.116,6.834 L 41.189,67.32 L 6.265,127.555 C 6.012,128.062 6.012,128.317 6.265,128.821 C 6.518,129.328 6.772,129.328 7.277,129.328 L 146.474,129.328 C 146.981,129.328 147.235,129.076 147.488,128.821 C 147.741,128.317 147.741,128.062 147.488,127.555 L 78.142,6.834 C 77.888,6.327 77.383,6.327 77.129,6.327 z" style="fill:url(#XMLID_6_)"/>
<g>
<linearGradient gradientTransform="translate(-319.7402,-162.3008)" gradientUnits="userSpaceOnUse" id="XMLID_7_" x1="9.8978996" x2="92.547897" y1="212.0303" y2="212.0303">
<stop offset="0" style="stop-color:#ffffff;stop-opacity:1"/>
<stop offset="1" style="stop-color:#ffcf03;stop-opacity:1"/>
</linearGradient>
<path d="M 43.215,68.333 C 43.215,68.333 40.177,73.901 35.623,81.494 C 47.77,86.557 61.944,89.591 76.875,89.591 C 91.809,89.591 105.98,86.557 118.382,81.494 C 99.904,49.353 78.142,11.896 77.129,9.869 C 75.104,13.161 43.215,68.333 43.215,68.333 z" style="fill:url(#XMLID_7_);fill-opacity:0.75;stroke-opacity:0.75"/>
</g>
<radialGradient cx="51.151901" cy="55.098598" fx="51.151901" fy="55.098598" gradientTransform="translate(25.7246,66.9731)" gradientUnits="userSpaceOnUse" id="XMLID_8_" r="42.922199">
<stop offset="0" style="stop-color:#ff8500;stop-opacity:1"/>
<stop offset="1" style="stop-color:#ffce00;stop-opacity:1"/>
</radialGradient>
<path d="M 16.642,129.581 L 137.112,129.581 C 122.431,120.468 100.919,114.899 76.876,114.899 C 53.085,114.647 31.574,120.468 16.642,129.581 z" style="fill:url(#XMLID_8_)"/>
<linearGradient gradientTransform="translate(25.7246,66.9731)" gradientUnits="userSpaceOnUse" id="XMLID_9_" x1="2.3682001" x2="100.1361" y1="9.8388996" y2="9.8388996">
<stop offset="0" style="stop-color:#ff9d00;stop-opacity:1"/>
<stop offset="1" style="stop-color:#ffcf03;stop-opacity:1"/>
</linearGradient>
<path d="M 71.056,36.949 L 50.047,73.396 L 29.042,109.837 C 27.776,111.863 27.776,114.648 29.042,116.671 C 30.307,118.695 32.585,120.215 34.862,120.215 L 118.886,120.215 C 121.415,120.215 123.695,118.949 124.708,116.671 C 125.974,114.648 125.974,111.863 124.708,109.837 L 82.951,36.949 C 81.684,34.926 79.406,33.408 77.129,33.408 C 74.599,33.66 72.32,34.926 71.056,36.949 z" style="fill:url(#XMLID_9_)"/>
<linearGradient gradientTransform="matrix(0.375,0,0,-0.375,58.7056,72.274)" gradientUnits="userSpaceOnUse" id="XMLID_10_" x1="41.958" x2="191.17239" y1="-61.622101" y2="-210.836">
<stop offset="0" style="stop-color:#ffffff;stop-opacity:1"/>
<stop offset="1" style="stop-color:#bbbbbb;stop-opacity:1"/>
</linearGradient>
<path d="M 73.585,38.471 L 31.319,111.36 C 30.56,112.625 30.56,114.142 31.319,115.408 C 32.079,116.674 33.344,117.432 34.862,117.432 L 118.886,117.432 C 120.406,117.432 121.671,116.672 122.43,115.408 C 123.191,114.142 123.191,112.625 122.43,111.36 L 80.672,38.471 C 79.912,37.204 78.648,36.445 77.13,36.445 C 75.609,36.443 74.091,37.204 73.585,38.471 z" style="fill:url(#XMLID_10_)"/>
<path d="M 76.875,112.876 C 74.344,112.876 72.32,110.601 72.32,107.563 C 72.32,104.526 74.344,102.247 76.875,102.247 C 79.658,102.247 81.433,104.526 81.433,107.563 C 81.434,110.601 79.658,112.876 76.875,112.876 L 76.875,112.876 z"/>
<polygon points="74.091,93.896 73.08,50.617 80.924,50.617 79.658,93.896 74.091,93.896 "/>
</g>
</g>
<g transform="matrix(0.7782427,0,0,0.7782427,60,42.654001)">
<path d="M 79.4,66.9 C 78.7,68.8 77.8,70.7 76.5,72.4 C 74.9,74.6 72.8,76.4 70.3,77.9 C 65.4,80.8 59.6,81.7 54.2,80.2 C 51.4,79.5 48.9,78.3 46.7,76.6 C 44.5,75 42.7,72.9 41.2,70.4 C 38.3,65.5 37.4,59.7 38.8,54.3 C 39.5,51.6 40.7,49.1 42.4,46.8 C 44,44.6 46.1,42.8 48.6,41.3 C 53.3,38.5 59,37.7 64.2,38.9 L 95.2,12.5 C 95.1,12.4 95,12.3 94.9,12.2 C 88.7,7.5 81.7,4.2 74.1,2.2 C 59,-1.5 42.7,0.9 29.3,8.7 C 22.6,12.7 16.8,17.8 12.2,24.1 C 7.5,30.3 4.2,37.3 2.3,44.8 C -1.5,59.8 0.8,76.1 8.8,89.5 C 12.8,96.2 18,102 24.2,106.7 C 30.5,111.4 37.4,114.7 45,116.7 C 60,120.5 76.3,118.2 89.7,110.3 C 96.4,106.3 102.2,101.2 106.8,95 C 110.3,90.4 114.3,84.7 116.7,73.8 L 79.4,66.9 z" style="fill:#4f4f4f"/>
<g>
<path d="M 63.3,33.7 L 87.5,13.8 C 69.3,2.3 46.8,3.2 31.7,13.9 L 45.5,37 C 51.5,33.4 56.5,31.9 63.3,33.7 z" style="fill:#5e5e5e"/>
<path d="M 37.6,43.9 C 39.8,41 42.5,38.7 45.4,37 L 31.7,13.9 C 25.8,17.4 20.5,22 16.1,27.8 C 11.8,33.6 8.8,40 7.1,46.6 L 33.1,53.3 C 34,50 35.5,46.8 37.6,43.9 z" style="fill:#6e6e6e"/>
<path d="M 33.1,53.3 L 7.1,46.6 C 3.7,60.4 5.8,75 13,87.2 L 36.1,73.6 C 32.5,67.5 31.4,60.2 33.1,53.3 z" style="fill:#7e7e7e"/>
<path d="M 43,81.4 C 40.1,79.2 37.8,76.5 36.1,73.6 L 13,87.2 C 16.5,93.1 21.1,98.4 27,102.8 C 32.8,107.1 39.2,110.2 45.8,111.8 L 52.4,85.9 C 49.2,85.1 46,83.6 43,81.4 z" style="fill:#6e6e6e"/>
<path d="M 82.7,72 C 82.7,72 81.9,74.3 80.6,76.1 C 78.4,79 75.7,81.3 72.8,83 L 86.5,106.1 C 92.4,102.6 97.5,99 101.9,93.2 C 104.6,89.6 110.7,77.3 110.7,77.3 L 82.7,72 z" style="fill:#8e8e8e"/>
<path d="M 72.7,83 C 66.6,86.6 59.3,87.7 52.4,85.9 L 45.8,111.8 C 59.5,115.3 74.2,113.2 86.4,106 L 72.7,83 z" style="fill:#7e7e7e"/>
</g>
<polygon points="106.9,59.9 57.9,55.9 116,10.2 106.9,59.9 " style="fill:#4f4f4f"/>
<polygon points="108,23.4 102.4,54.1 72.2,51.6 108,23.4 " style="fill:#ffd254"/>
<rect height="119.5" style="fill:none" width="119.5" x="0" y="0"/>
</g>
</svg>
