<?xml version="1.0" encoding="UTF-8"?>
<!DOCTYPE svg PUBLIC "-//W3C//DTD SVG 1.1 Tiny//EN" "http://www.w3.org/Graphics/SVG/1.1/DTD/svg11-tiny.dtd">
<svg xmlns="http://www.w3.org/2000/svg" xmlns:xlink="http://www.w3.org/1999/xlink" baseProfile="tiny" height="100%" viewBox="0 0 144 144" width="100%">
<g style="fill-rule:nonzero;clip-rule:nonzero;fill:#FFFFFF;stroke:#FFFFFF;stroke-width:0;stroke-miterlimit:4;">
<path d="M144,144H0V0h144v144z" style="fill:none;stroke:none;"/>
<path d="M143.128,99.64l-0.018-4.848l-2.863-2.229c0,0-2.715-2.174-3.678-2.945c-0.115-1.471-0.55-7.043-0.55-7.043l-0.235-3.461l-5.27-4.076l-11.354-8.451l-1.643,0.558c-1.332-1.002-2.876-2.162-4.648-3.494l-0.123-1.813l-5.269-4.076    l-11.355-8.451l-1.618,0.55c-1.364-1.024-2.745-2.062-4.128-3.1l-0.127-1.867l-5.27-4.076l-11.355-8.451l-1.639,0.557c-4.434-3.347-7.516-5.689-8.004-6.101c-1.182-0.998-2.954-1.195-4.319-0.468l0.052-0.027c-1.23,0.618-12.945,5.394-22.358,9.23    c-14.737,6.007-19.142,7.82-19.938,8.258c-1.21,0.667-1.961,1.93-1.958,3.313l0.038,14.949l-4.259,2.067c0,0,0.329,18.254,0.358,19.923c-1.044,0.514-6.213,3.059-6.213,3.059l-0.326,5.436l11.341,11.096l9.795-4.847c0,0,0.586-1.089,0.645-1.198    c0.087-0.139,1.384-2.225,1.384-2.225s0.693-4.377,1.338-8.443l0.364,0.33c0.1,5.517,0.24,13.291,0.259,14.354c-1.044,0.514-6.214,3.059-6.214,3.059l-0.326,5.436l11.34,11.096l9.796-4.848c0,0,0.586-1.088,0.646-1.198c0.086-0.139,1.384-2.224,1.384-2.224    s0.769-4.85,1.439-9.083l1.386,1.255c0.099,5.508,0.237,13.174,0.257,14.228c-1.044,0.515-6.213,3.06-6.213,3.06l-0.327,5.436l11.341,11.094l9.794-4.846c0,0,0.586-1.089,0.646-1.199c0.087-0.139,1.384-2.224,1.384-2.224s0.755-4.767,1.422-8.974l7.496,6.787    c1.178,1.066,2.953,1.271,4.358,0.529l45.428-23.983c1.245-0.657,1.981-1.915,1.976-3.322l-0.009-1.979l7.235,5.781l8.705-5.869z M135.445,92.351l-1.607-1.286l-0.168-2.156l0.168,2.156l1.607,1.286z M133.126,80.663l-4.35-3.385l-1.725-1.369v-0.001l1.723,1.368    l4.352,3.387z" style="opacity:0.2;fill:#000030;stroke:none;"/>
<g style="stroke:none;">
<g>
<linearGradient gradientTransform="matrix(0.9988 -0.05 0.05 0.9988 4.8774 1.0598)" gradientUnits="userSpaceOnUse" id="aigrd1" x1="110.9321" x2="125.8384" y1="93.8916" y2="93.8916">
<stop offset="0" style="stop-color:#FFFFE1"/>
<stop offset="1" style="stop-color:#FFB800"/>
</linearGradient>
<path d="M120.225,86.378l9.936,8.158l5.239-3.188l-10.042-8.04l-5.133,3.069z" style="fill:url(#aigrd1);"/>
<linearGradient gradientTransform="matrix(1.0736 -0.0537 0.0541 1.082 2.6032 6.2865)" gradientUnits="userSpaceOnUse" id="aigrd2" x1="100.8462" x2="113.8833" y1="74.2588" y2="74.2588">
<stop offset="0" style="stop-color:#FFFFE1"/>
<stop offset="1" style="stop-color:#FFB800"/>
</linearGradient>
<path d="M116.955,86.945l-0.744-1.843l-2.153-20.509l14.126,11.214l-0.32,17.209l1.854,4.127l-12.762-10.198z" style="fill:url(#aigrd2);"/>
<path d="M107.397,67.259l14.082,11.236l6.8-2.682l-14.231-11.07l-6.65,2.516z"/>
<linearGradient gradientUnits="userSpaceOnUse" id="aigrd3" x1="121.479" x2="135.4263" y1="86.498" y2="86.498">
<stop offset="0" style="stop-color:#FFAE00"/>
<stop offset="1" style="stop-color:#4C1C00"/>
</linearGradient>
<path d="M121.479,78.495l6.7-2.643l1.283,16.424l0.77,1.9l5.168-3.144l0.026,2.261l-5.71,3.85l-2.283-4.014l-1.478-13.98l-4.47,1.793l-0.007-2.447z" style="fill:url(#aigrd3);"/>
<linearGradient gradientUnits="userSpaceOnUse" id="aigrd4" x1="107.3989" x2="135.4296" y1="81.1992" y2="81.1992">
<stop offset="0" style="stop-color:#FFAE00"/>
<stop offset="1" style="stop-color:#4C1C00"/>
</linearGradient>
<path d="M114.312,61.738l11.355,8.451l5.268,4.076l0.236,3.461c0,0,0.435,5.572,0.55,7.045c0.964,0.771,3.677,2.943,3.677,2.943l2.865,2.23l0.017,4.846l-8.706,5.87l-14.971-11.964l-1.172-2.902c0,0-0.956-9.102-1.156-11.014      c-1.429-1.141-10.541-8.412-10.541-8.412l9.291-3.514l3.287-1.117z M135.4,91.033l-0.224,0.136l-6.188-4.953l-0.808-10.338v-0.026l0.098-0.038l-4.354-3.386l-9.868-7.834l0.019,0.173l-0.028-0.022l-6.65,2.516l7.575,6.044l1.238,11.799l0.744,1.843      l12.762,10.198l5.71-3.85l-0.026-2.261z" style="fill:url(#aigrd4);"/>
</g>
<g>
<linearGradient gradientTransform="matrix(0.9988 -0.05 0.05 0.9988 4.8774 1.0598)" gradientUnits="userSpaceOnUse" id="aigrd5" x1="88.7876" x2="103.6948" y1="75.4854" y2="75.4854">
<stop offset="0" style="stop-color:#FFFFE1"/>
<stop offset="1" style="stop-color:#FFB800"/>
</linearGradient>
<path d="M97.187,69.102l9.936,8.158l5.24-3.187l-10.042-8.041l-5.134,3.069z" style="fill:url(#aigrd5);"/>
<linearGradient gradientTransform="matrix(1.0736 -0.0537 0.0541 1.082 2.6032 6.2865)" gradientUnits="userSpaceOnUse" id="aigrd6" x1="80.2446" x2="93.2817" y1="57.2695" y2="57.2695">
<stop offset="0" style="stop-color:#FFFFE1"/>
<stop offset="1" style="stop-color:#FFB800"/>
</linearGradient>
<path d="M93.917,69.669l-0.745-1.843L91.02,47.317l14.125,11.214l-0.319,17.208l1.854,4.128L93.917,69.669z" style="fill:url(#aigrd6);"/>
<path d="M84.359,49.983l14.082,11.236l6.8-2.681l-14.23-11.07l-6.651,2.515z"/>
<linearGradient gradientUnits="userSpaceOnUse" id="aigrd7" x1="98.4409" x2="112.3882" y1="69.2227" y2="69.2227">
<stop offset="0" style="stop-color:#FFAE00"/>
<stop offset="1" style="stop-color:#4C1C00"/>
</linearGradient>
<path d="M98.441,61.219l6.701-2.643L106.425,75l0.77,1.901l5.168-3.144l0.025,2.26l-5.709,3.851l-2.283-4.014l-1.478-13.982l-4.47,1.795l-0.008-2.448z" style="fill:url(#aigrd7);"/>
<linearGradient gradientUnits="userSpaceOnUse" id="aigrd8" x1="84.3608" x2="112.3923" y1="63.9229" y2="63.9229">
<stop offset="0" style="stop-color:#FFAE00"/>
<stop offset="1" style="stop-color:#4C1C00"/>
</linearGradient>
<path d="M91.274,44.462l11.355,8.451l5.269,4.076l0.235,3.461c0,0,0.436,5.572,0.551,7.043c0.963,0.772,3.677,2.944,3.677,2.944l2.864,2.229l0.018,4.848l-8.706,5.869L91.566,71.421l-1.172-2.902c0,0-0.956-9.103-1.156-11.015      c-1.43-1.14-10.542-8.412-10.542-8.412l9.291-3.514l3.287-1.116z M112.363,73.758l-0.225,0.136l-6.187-4.954l-0.808-10.338v-0.026l0.097-0.038l-4.353-3.386l-9.868-7.834l0.019,0.173l-0.028-0.022l-6.651,2.515l7.575,6.044l1.238,11.799l0.745,1.843      l12.762,10.199l5.709-3.851l-0.025-2.26z" style="fill:url(#aigrd8);"/>
</g>
<g>
<linearGradient gradientTransform="matrix(0.9988 -0.05 0.05 0.9988 4.8774 1.0598)" gradientUnits="userSpaceOnUse" id="aigrd9" x1="67.1655" x2="82.0728" y1="57.4395" y2="57.4395">
<stop offset="0" style="stop-color:#FFFFE1"/>
<stop offset="1" style="stop-color:#FFB800"/>
</linearGradient>
<path d="M74.689,52.158l9.936,8.158l5.24-3.188l-10.042-8.04l-5.134,3.069z" style="fill:url(#aigrd9);"/>
<linearGradient gradientTransform="matrix(1.0736 -0.0537 0.0541 1.082 2.6032 6.2865)" gradientUnits="userSpaceOnUse" id="aigrd10" x1="60.1289" x2="73.1655" y1="40.6113" y2="40.6113">
<stop offset="0" style="stop-color:#FFFFE1"/>
<stop offset="1" style="stop-color:#FFB800"/>
</linearGradient>
<path d="M71.419,52.726l-0.744-1.843l-2.152-20.509l14.125,11.214l-0.32,17.208l1.854,4.127L71.419,52.726z" style="fill:url(#aigrd10);"/>
<path d="M61.861,33.04l14.082,11.235l6.8-2.681l-14.23-11.07l-6.651,2.516z"/>
<linearGradient gradientUnits="userSpaceOnUse" id="aigrd11" x1="75.9429" x2="89.8911" y1="52.2783" y2="52.2783">
<stop offset="0" style="stop-color:#FFAE00"/>
<stop offset="1" style="stop-color:#4C1C00"/>
</linearGradient>
<path d="M75.943,44.275l6.701-2.642l1.283,16.424l0.77,1.901l5.168-3.144l0.026,2.26l-5.71,3.85l-2.283-4.013L80.42,44.929l-4.47,1.794l-0.008-2.448z" style="fill:url(#aigrd11);"/>
<linearGradient gradientUnits="userSpaceOnUse" id="aigrd12" x1="61.8623" x2="89.8938" y1="46.9795" y2="46.9795">
<stop offset="0" style="stop-color:#FFAE00"/>
<stop offset="1" style="stop-color:#4C1C00"/>
</linearGradient>
<path d="M68.776,27.519l11.355,8.451l5.269,4.076l0.236,3.461c0,0,0.435,5.572,0.549,7.044c0.965,0.771,3.678,2.944,3.678,2.944l2.864,2.229l0.018,4.846l-8.706,5.87L69.067,54.477l-1.171-2.902c0,0-0.956-9.103-1.156-11.015      c-1.429-1.14-10.542-8.411-10.542-8.411l9.292-3.514l3.287-1.117z M89.865,56.813L89.64,56.95l-6.186-4.954l-0.809-10.338v-0.026l0.097-0.038l-4.353-3.386l-9.868-7.834l0.018,0.173l-0.028-0.022l-6.651,2.516l7.575,6.044l1.239,11.799l0.744,1.843      l12.762,10.198l5.71-3.85l-0.026-2.26z" style="fill:url(#aigrd12);"/>
</g>
</g>
<path d="M14.394,42.281c0,1.741,0.064,24.125,0.064,25.429c0.96,0.876,57.135,51.722,58.678,53.132c1.836-1.001,43.896-23.151,45.43-23.984c0-1.752-0.104-24.117-0.104-25.428c-0.97-0.877-60.272-45.204-61.821-46.612    c-1.831,1.01-40.727,16.625-42.246,17.463z" style="stroke:none;"/>
<linearGradient gradientUnits="userSpaceOnUse" id="aigrd13" x1="59.021" x2="59.021" y1="122.7236" y2="122.7236">
<stop offset="0" style="stop-color:#FFFFE1"/>
<stop offset="1" style="stop-color:#FFB800"/>
</linearGradient>
<path d="M59.021,122.724" style="fill:url(#aigrd13);stroke:none;"/>
<path d="M20.399,54.962" style="stroke:#000000;stroke-width:1;"/>
<path d="M71.144,99.011" style="stroke:#000000;stroke-width:1;"/>
<path d="M117.306,71.981" style="stroke:#000000;stroke-width:1;"/>
<path d="M66.882,26.915" style="stroke:#000000;stroke-width:1;"/>
<linearGradient gradientUnits="userSpaceOnUse" id="aigrd14" x1="-46.7803" x2="119.8942" y1="-14.248" y2="114.7903">
<stop offset="0" style="stop-color:#FFFFFF"/>
<stop offset="1" style="stop-color:#36364C"/>
</linearGradient>
<path d="M59.132,21.975c1.323,1.115,21.635,16.364,36.467,27.499c20.898,15.688,24.934,18.731,25.399,19.152c0.788,0.713,1.239,1.741,1.245,2.804l0.104,25.428c0.006,1.407-0.73,2.664-1.975,3.322l-45.428,23.982    c-1.405,0.742-3.181,0.538-4.359-0.529l-58.677-53.13c-0.789-0.714-1.229-1.728-1.232-2.793l-0.064-25.429c-0.004-1.382,0.747-2.646,1.958-3.313c0.795-0.438,5.201-2.251,19.938-8.258c9.413-3.836,21.127-8.612,22.358-9.23l-0.052,0.028    c1.365-0.728,3.137-0.53,4.319,0.468z M14.394,42.281c0,0.141,0.064,22.524,0.064,25.429c0.96,0.876,57.135,51.722,58.678,53.132c1.836-1.001,43.896-23.151,45.43-23.984c0-1.752-0.104-24.117-0.104-25.428c-0.97-0.877-60.272-45.204-61.821-46.612    c-1.831,1.01-40.727,16.625-42.246,17.463z" style="fill:url(#aigrd14);stroke:none;"/>
<linearGradient gradientUnits="userSpaceOnUse" id="aigrd15" x1="115.064" x2="67.66" y1="88.6094" y2="106.86">
<stop offset="0" style="stop-color:#FFFFFF"/>
<stop offset="1" style="stop-color:#4B4B73"/>
</linearGradient>
<path d="M75.171,99.623l-0.035,18.689l41.854-21.761V73.535l-12.977,6.604l-0.022,7.913L90.125,95.38l0.008-8.178l-12.666,6.443c0,0-1.465,1.039-1.896,2.812c-0.43,1.774-0.398,3.166-0.398,3.166z" style="fill:url(#aigrd15);stroke:none;"/>
<linearGradient gradientUnits="userSpaceOnUse" id="aigrd16" x1="66.2485" x2="69.0401" y1="36.2827" y2="118.6349">
<stop offset="0" style="stop-color:#FFFFFF"/>
<stop offset="1" style="stop-color:#4B4B73"/>
</linearGradient>
<path d="M56.64,26.086l60.35,45.716l-13.322,7.138c0,0-7.119-5.336-8.018-5.971c-0.898-0.634-5.568-4.916-12.281-1.365c-5.288,3.07-1.023,7.506-1.023,7.506l7.506,6.652l-12.398,6.279c0,0-2.023,0.68-3.316,0.563    c-1.295-0.121-2.875-1.428-2.875-1.428L16.928,42.704L56.64,26.086z" style="fill:url(#aigrd16);stroke:none;"/>
<linearGradient gradientUnits="userSpaceOnUse" id="aigrd17" x1="96.9263" x2="90.1168" y1="91.3799" y2="71.0062">
<stop offset="0" style="stop-color:#FFFFFF"/>
<stop offset="0.1023" style="stop-color:#DCDCE4"/>
<stop offset="0.2513" style="stop-color:#B0B0C2"/>
<stop offset="0.4021" style="stop-color:#8C8CA5"/>
<stop offset="0.5524" style="stop-color:#6F6F8F"/>
<stop offset="0.7024" style="stop-color:#5B5B80"/>
<stop offset="0.8517" style="stop-color:#4F4F76"/>
<stop offset="1" style="stop-color:#4B4B73"/>
</linearGradient>
<path d="M84.32,73.239h-0.002c-1.023,0.596-1.592,1.24-1.689,1.92c-0.012,0.08-0.018,0.162-0.018,0.246c0,0.825,0.544,1.754,1.052,2.346c0.132,0.115,8.528,7.498,8.528,7.498s0.034,4.709,0.049,6.708c2.043-1.079,9.098-4.808,9.908-5.235    c0.001-0.908,0.008-5.78,0.01-6.549c-0.693-0.516-7.709-5.741-7.709-5.741c-0.029-0.043-0.412-0.315-0.412-0.315c-1.625-1.176-5.004-3.624-9.717-0.877z" style="fill:url(#aigrd17);stroke:none;"/>
<linearGradient gradientUnits="userSpaceOnUse" id="aigrd18" x1="20.6729" x2="81.6515" y1="47.1401" y2="136.008">
<stop offset="0" style="stop-color:#FFFFFF"/>
<stop offset="1" style="stop-color:#4B4B73"/>
</linearGradient>
<path d="M72.562,98.98l0.035,18.69L15.661,66.362V43.971l54.684,49.032c0,0,1.416,1.037,1.832,2.811c0.416,1.775,0.386,3.167,0.386,3.167z" style="fill:url(#aigrd18);stroke:none;"/>
<linearGradient gradientUnits="userSpaceOnUse" id="aigrd19" x1="85.8696" x2="85.8696" y1="20.8975" y2="106.5631">
<stop offset="0" style="stop-color:#FFFFFF"/>
<stop offset="1" style="stop-color:#4B4B73"/>
</linearGradient>
<path d="M66.252,56.538c15.441-10.4-10.114-24.625-9.612-29.043l58.459,44.485l-11.09,5.595l-8.359-6.312c0,0-6.068-4.599-13.135-0.853c-6.994,3.924-1.535,9.723-1.535,9.723l6.652,5.629l-12.725,6.156c0,0-25.187-24.247-8.655-35.381z" style="fill:url(#aigrd19);stroke:none;"/>
<g style="stroke:none;">
<g>
<linearGradient gradientUnits="userSpaceOnUse" id="aigrd20" x1="38.5029" x2="69.7998" y1="111.8145" y2="111.8145">
<stop offset="0" style="stop-color:#FFAE00"/>
<stop offset="1" style="stop-color:#4C1C00"/>
</linearGradient>
<path d="M55.067,89.538L69.8,103.042l-0.22,5.152c0,0-5.348,2.645-5.553,2.746c-0.378,2.389-2.358,14.881-2.358,14.881s-1.297,2.084-1.384,2.223c-0.06,0.111-0.646,1.199-0.646,1.199l-9.795,4.848l-11.341-11.096l0.327-5.436      c0,0,5.169-2.545,6.213-3.059c-0.031-1.668-0.359-19.924-0.359-19.924l8.649-4.197l1.734-0.842z M54.571,92.932L66.91,104.24c0,0,0,0-0.092,2.155c-2.143,1.061-4.635,2.293-5.363,2.653c-0.271,1.71-2.498,15.761-2.498,15.761l-1.128,1.813l-0.259,0.481      l-7.181,3.554l-8.977-8.783l0.152-2.498c0,0,4.651-2.296,5.401-2.66c0.142-0.203,0.93-1.344,0.93-1.344l-0.343-19.034l7.019-3.406z" style="fill:url(#aigrd20);"/>
<linearGradient gradientTransform="matrix(0.9993 0.037 -0.037 0.9993 -1.43 1.8062)" gradientUnits="userSpaceOnUse" id="aigrd21" x1="53.1753" x2="83.9026" y1="107.9199" y2="107.9199">
<stop offset="0" style="stop-color:#FFAE00"/>
<stop offset="1" style="stop-color:#4C1C00"/>
</linearGradient>
<path d="M47.552,96.338l0.343,19.034c0,0-0.789,1.141-0.93,1.344c-0.75,0.364-5.401,2.66-5.401,2.66l-0.152,2.498l8.977,8.783l7.181-3.554l0.259-0.481l1.128-1.813c0,0,2.227-14.051,2.498-15.761c0.728-0.36,3.221-1.593,5.363-2.653      c0.092-2.155,0.092-2.155,0.092-2.155L54.571,92.932l-7.019,3.406z" style="fill:url(#aigrd21);"/>
<path d="M47.552,96.338l12.188,11.45l7.17-3.548L54.571,92.932l-7.019,3.406z"/>
<linearGradient gradientTransform="matrix(0.9993 0.037 -0.037 0.9993 -1.43 1.8062)" gradientUnits="userSpaceOnUse" id="aigrd22" x1="52.4473" x2="65.0503" y1="107.1396" y2="107.1396">
<stop offset="0" style="stop-color:#FFFFE1"/>
<stop offset="1" style="stop-color:#FFB800"/>
</linearGradient>
<path d="M46.922,116.774l0.973-1.402l-0.343-19.034l12.188,11.45l-2.591,16.348l-0.939,1.51l-9.288-8.871z" style="fill:url(#aigrd22);"/>
<linearGradient gradientTransform="matrix(0.9993 0.037 -0.037 0.9993 -1.43 1.8062)" gradientUnits="userSpaceOnUse" id="aigrd23" x1="47.2754" x2="62.1831" y1="118.8193" y2="118.8193">
<stop offset="0" style="stop-color:#FFFFE1"/>
<stop offset="1" style="stop-color:#FFB800"/>
</linearGradient>
<path d="M41.524,119.375l9.189,8.991l5.497-2.721l-9.305-8.882l-5.38,2.611z" style="fill:url(#aigrd23);"/>
<linearGradient gradientUnits="userSpaceOnUse" id="aigrd24" x1="18.7959" x2="50.0928" y1="94.0947" y2="94.0947">
<stop offset="0" style="stop-color:#FFAE00"/>
<stop offset="1" style="stop-color:#4C1C00"/>
</linearGradient>
<path d="M35.36,71.819l14.733,13.503l-0.22,5.151c0,0-5.348,2.646-5.553,2.747c-0.378,2.388-2.358,14.88-2.358,14.88s-1.297,2.086-1.384,2.225c-0.06,0.109-0.645,1.198-0.645,1.198l-9.796,4.847l-11.34-11.095l0.326-5.436      c0,0,5.169-2.546,6.213-3.06c-0.03-1.668-0.359-19.923-0.359-19.923l8.649-4.197l1.734-0.841z M34.864,75.212l12.339,11.309c0,0,0,0-0.093,2.154c-2.142,1.061-4.635,2.294-5.363,2.654c-0.271,1.709-2.498,15.76-2.498,15.76l-1.128,1.813l-0.259,0.48      l-7.181,3.554l-8.977-8.783l0.151-2.498c0,0,4.651-2.295,5.401-2.66c0.142-0.203,0.93-1.344,0.93-1.344l-0.342-19.033l7.018-3.406z" style="fill:url(#aigrd24);"/>
<linearGradient gradientTransform="matrix(0.9993 0.037 -0.037 0.9993 -1.43 1.8062)" gradientUnits="userSpaceOnUse" id="aigrd25" x1="32.8257" x2="63.5536" y1="90.9404" y2="90.9404">
<stop offset="0" style="stop-color:#FFAE00"/>
<stop offset="1" style="stop-color:#4C1C00"/>
</linearGradient>
<path d="M27.846,78.618l0.342,19.033c0,0-0.788,1.141-0.93,1.344c-0.75,0.365-5.401,2.66-5.401,2.66l-0.151,2.498l8.977,8.783l7.181-3.554l0.259-0.48l1.128-1.813c0,0,2.227-14.051,2.498-15.76c0.728-0.36,3.221-1.594,5.363-2.654      c0.093-2.154,0.093-2.154,0.093-2.154L34.864,75.212l-7.018,3.406z" style="fill:url(#aigrd25);"/>
<path d="M27.846,78.618l12.187,11.449l7.17-3.547L34.864,75.212l-7.018,3.406z"/>
<linearGradient gradientTransform="matrix(0.9993 0.037 -0.037 0.9993 -1.43 1.8062)" gradientUnits="userSpaceOnUse" id="aigrd26" x1="32.0981" x2="44.7007" y1="90.1611" y2="90.1611">
<stop offset="0" style="stop-color:#FFFFE1"/>
<stop offset="1" style="stop-color:#FFB800"/>
</linearGradient>
<path d="M27.214,99.055l0.973-1.403l-0.342-19.033l12.187,11.449l-2.591,16.348l-0.939,1.511l-9.288-8.871z" style="fill:url(#aigrd26);"/>
<linearGradient gradientTransform="matrix(0.9993 0.037 -0.037 0.9993 -1.43 1.8062)" gradientUnits="userSpaceOnUse" id="aigrd27" x1="26.9258" x2="41.8335" y1="101.8398" y2="101.8398">
<stop offset="0" style="stop-color:#FFFFE1"/>
<stop offset="1" style="stop-color:#FFB800"/>
</linearGradient>
<path d="M21.817,101.654l9.189,8.991l5.497-2.72l-9.306-8.882l-5.38,2.61z" style="fill:url(#aigrd27);"/>
<linearGradient gradientUnits="userSpaceOnUse" id="aigrd28" x1="0.209" x2="31.5059" y1="76.5342" y2="76.5342">
<stop offset="0" style="stop-color:#FFAE00"/>
<stop offset="1" style="stop-color:#4C1C00"/>
</linearGradient>
<path d="M16.773,54.258l14.733,13.503l-0.22,5.151c0,0-5.348,2.646-5.553,2.748c-0.379,2.388-2.358,14.879-2.358,14.879s-1.297,2.086-1.384,2.225c-0.059,0.109-0.646,1.199-0.646,1.199l-9.795,4.847L0.209,87.716l0.326-5.436      c0,0,5.169-2.546,6.214-3.06C6.719,77.552,6.39,59.297,6.39,59.297l8.648-4.197l1.734-0.842z M16.277,57.651L28.616,68.96c0,0,0,0-0.092,2.155c-2.142,1.06-4.635,2.294-5.363,2.653c-0.271,1.709-2.498,15.761-2.498,15.761l-1.128,1.813l-0.259,0.481      l-7.181,3.553l-8.977-8.783l0.151-2.498c0,0,4.651-2.296,5.401-2.659c0.142-0.204,0.93-1.345,0.93-1.345L9.259,61.057l7.018-3.406z" style="fill:url(#aigrd28);"/>
</g>
<linearGradient gradientTransform="matrix(0.9993 0.037 -0.037 0.9993 -1.43 1.8062)" gradientUnits="userSpaceOnUse" id="aigrd29" x1="13.6016" x2="44.3288" y1="74.0801" y2="74.0801">
<stop offset="0" style="stop-color:#FFAE00"/>
<stop offset="1" style="stop-color:#4C1C00"/>
</linearGradient>
<path d="M9.259,61.057l0.342,19.034c0,0-0.789,1.141-0.93,1.345c-0.75,0.363-5.401,2.659-5.401,2.659l-0.151,2.498l8.977,8.783l7.181-3.553l0.259-0.481l1.128-1.813c0,0,2.226-14.052,2.498-15.761c0.728-0.359,3.222-1.593,5.363-2.653     c0.092-2.155,0.092-2.155,0.092-2.155L16.277,57.651l-7.018,3.406z" style="fill:url(#aigrd29);"/>
<path d="M9.259,61.057l12.188,11.449l7.17-3.546L16.277,57.651l-7.018,3.406z"/>
<linearGradient gradientTransform="matrix(0.9993 0.037 -0.037 0.9993 -1.43 1.8062)" gradientUnits="userSpaceOnUse" id="aigrd30" x1="12.874" x2="25.4771" y1="73.3008" y2="73.3008">
<stop offset="0" style="stop-color:#FFFFE1"/>
<stop offset="1" style="stop-color:#FFB800"/>
</linearGradient>
<path d="M8.628,81.495l0.973-1.404L9.259,61.057l12.188,11.449l-2.591,16.349l-0.94,1.511l-9.288-8.871z" style="fill:url(#aigrd30);"/>
<linearGradient gradientTransform="matrix(0.9993 0.037 -0.037 0.9993 -1.43 1.8062)" gradientUnits="userSpaceOnUse" id="aigrd31" x1="7.7017" x2="22.6094" y1="84.9785" y2="84.9785">
<stop offset="0" style="stop-color:#FFFFE1"/>
<stop offset="1" style="stop-color:#FFB800"/>
</linearGradient>
<path d="M3.23,84.095l9.189,8.99l5.496-2.719L8.61,81.483l-5.38,2.611z" style="fill:url(#aigrd31);"/>
</g>
</g>
</svg>
